<?xml version="1.0" encoding="utf-8"?>
<!-- Generator: Adobe Illustrator 22.1.0, SVG Export Plug-In . SVG Version: 6.00 Build 0)  -->
<svg xmlns="http://www.w3.org/2000/svg" xmlns:xlink="http://www.w3.org/1999/xlink" version="1.1" id="Layer_1" x="0px" y="0px" viewBox="0 0 256 256" style="enable-background:new 0 0 256 256;" xml:space="preserve" width="512" height="512">
<style type="text/css">
	.st0{fill:#FF4397;}
	.st1{fill:#E12579;}
	.st2{fill:#FF61B5;}
	.st3{fill:#690589;}
	.st4{fill:#FCC24C;}
	.st5{fill:#7BAC51;}
	.st6{fill:#5D8E33;}
	.st7{fill:#99CA6F;}
	.st8{fill:#E18152;}
	.st9{fill:#F4EFED;}
	.st10{fill:#FF9F70;}
	.st11{fill:#FFBD8E;}
	.st12{fill:#D6D1CF;}
	.st13{fill:#FFFFFF;}
	.st14{fill:#FCE06A;}
	.st15{fill:#DEA42E;}
</style>
<g>
	<g>
		<path class="st0" d="M162.008,173.331h-1.257c-7.617,9.956-19.551,16.389-33,16.389c-13.448,0-25.381-6.434-32.999-16.389h-0.76    c-22.855,0-41.383,18.528-41.383,41.383V252h150.781v-37.286C203.391,191.859,184.863,173.331,162.008,173.331z"/>
	</g>
	<g>
		<path class="st0" d="M203.391,159.207l-33.965-34.194V84.829l-24.53,24.696c-5.231-2.381-11.031-3.717-17.145-3.717    c-6.114,0-11.914,1.336-17.145,3.717l-24.53-24.696v41.321l-33.466,33.692h35.228c5.153,17.283,21.069,29.878,39.914,29.878    c19.075,0,35.144-12.906,40.093-30.514H203.391z"/>
	</g>
	<g>
		<path class="st4" d="M121.743,153.143c-5.76,5.76-15.1,5.76-20.86,0c-5.76-5.76-5.76-15.1,0-20.86L121.743,153.143z"/>
	</g>
	<g>
		<path class="st4" d="M134.257,153.143c5.76,5.76,15.1,5.76,20.86,0c5.761-5.76,5.761-15.1,0-20.86L134.257,153.143z"/>
	</g>
	<g>
		<path class="st1" d="M229.719,189.721h-34.733c5.272,6.945,8.405,15.602,8.405,24.994v1.334L229.719,189.721z"/>
	</g>
	<g>
		<path class="st2" d="M52.609,214.714c0-9.392,3.133-18.049,8.405-24.994H26.281l26.328,26.328V214.714z"/>
	</g>
	<g>
		<g>
			<path class="st1" d="M162.008,173.331h-1.257c-0.579,0.757-1.191,1.486-1.819,2.201c16.321,5.544,28.07,20.986,28.07,39.182V252     h16.389v-37.286C203.391,191.859,184.863,173.331,162.008,173.331z"/>
		</g>
	</g>
	<g>
		<g>
			<path class="st2" d="M93.992,173.331h1.257c0.579,0.757,1.191,1.486,1.819,2.201c-16.321,5.544-28.07,20.986-28.07,39.182V252     H52.609v-37.286C52.609,191.859,71.137,173.331,93.992,173.331z"/>
		</g>
	</g>
	<g>
		<path class="st3" d="M111.313,159.463c-4.475,0-8.681-1.743-11.844-4.906c-3.164-3.164-4.906-7.37-4.906-11.844    c0-4.474,1.742-8.681,4.906-11.844c0.75-0.75,2.078-0.75,2.828,0l20.859,20.86c0.781,0.781,0.781,2.047,0,2.828    C119.993,157.721,115.787,159.463,111.313,159.463z M100.992,135.221c-1.578,2.164-2.43,4.763-2.43,7.492    c0,3.406,1.326,6.608,3.734,9.016s5.61,3.734,9.016,3.734c2.729,0,5.328-0.852,7.492-2.43L100.992,135.221z"/>
	</g>
	<g>
		<path class="st3" d="M144.688,159.463c-4.475,0-8.681-1.742-11.845-4.906c-0.375-0.375-0.586-0.884-0.586-1.414    s0.211-1.039,0.586-1.414l20.86-20.86c0.781-0.781,2.047-0.781,2.828,0c3.164,3.164,4.906,7.37,4.906,11.844    c0,4.475-1.742,8.681-4.906,11.844C153.368,157.721,149.162,159.463,144.688,159.463z M137.195,153.033    c2.164,1.578,4.763,2.43,7.492,2.43c3.405,0,6.607-1.326,9.016-3.734s3.734-5.61,3.734-9.016c0-2.729-0.852-5.328-2.43-7.492    L137.195,153.033z"/>
	</g>
	<g>
		<path class="st3" d="M127.751,191.721c-18.635,0-35.437-12.213-41.378-29.878H52.609c-0.808,0-1.536-0.486-1.847-1.231    s-0.142-1.605,0.428-2.178l32.885-33.107V84.829c0-0.81,0.488-1.54,1.237-1.849c0.749-0.309,1.61-0.135,2.182,0.439l23.566,23.726    c5.306-2.215,10.914-3.337,16.69-3.337c5.777,0,11.385,1.122,16.689,3.337l23.566-23.725c0.57-0.575,1.432-0.748,2.182-0.439    c0.749,0.309,1.237,1.039,1.237,1.849v39.359l33.384,33.609c0.569,0.573,0.738,1.433,0.428,2.178s-1.039,1.231-1.847,1.231    h-34.059C163.576,179.248,146.692,191.721,127.751,191.721z M57.415,157.842h30.422c0.885,0,1.664,0.581,1.917,1.429    c4.994,16.75,20.619,28.45,37.997,28.45c17.664,0,33.359-11.948,38.167-29.055c0.243-0.863,1.029-1.459,1.926-1.459h30.741    l-30.578-30.784c-0.372-0.375-0.581-0.881-0.581-1.41V89.681l-21.111,21.254c-0.59,0.592-1.485,0.758-2.247,0.411    c-5.157-2.347-10.646-3.538-16.316-3.538c-5.669,0-11.159,1.19-16.317,3.538c-0.763,0.348-1.658,0.183-2.247-0.411L88.075,89.681    v36.469c0,0.528-0.209,1.035-0.581,1.41L57.415,157.842z"/>
	</g>
	<g>
		<path class="st3" d="M203.391,218.049c-0.258,0-0.518-0.05-0.766-0.152c-0.747-0.31-1.234-1.039-1.234-1.848v-1.334    c0-8.667-2.766-16.892-7.998-23.784c-0.46-0.605-0.536-1.418-0.198-2.099c0.337-0.681,1.031-1.111,1.791-1.111h34.733    c0.809,0,1.538,0.487,1.848,1.235c0.31,0.747,0.139,1.607-0.434,2.179l-26.328,26.328    C204.422,217.846,203.911,218.049,203.391,218.049z M198.799,191.721c3.731,5.939,5.932,12.615,6.465,19.627l19.627-19.627    H198.799z"/>
	</g>
	<g>
		<path class="st3" d="M52.609,218.049c-0.521,0-1.031-0.203-1.414-0.586l-26.328-26.328c-0.572-0.572-0.743-1.432-0.434-2.179    c0.31-0.748,1.039-1.235,1.848-1.235h34.732c0.76,0,1.454,0.43,1.791,1.111c0.338,0.68,0.262,1.493-0.198,2.098    c-5.231,6.893-7.997,15.118-7.997,23.785v1.334c0,0.809-0.487,1.538-1.234,1.848C53.127,217.999,52.867,218.049,52.609,218.049z     M31.109,191.721l19.627,19.627c0.533-7.011,2.733-13.688,6.464-19.627H31.109z"/>
	</g>
	<g>
		<path class="st3" d="M203.391,254H52.609c-1.104,0-2-0.896-2-2v-37.286c0-23.921,19.462-43.383,43.383-43.383h0.76    c0.623,0,1.21,0.29,1.588,0.785c7.59,9.917,19.038,15.604,31.411,15.604c12.376,0,23.825-5.688,31.411-15.604    c0.379-0.495,0.966-0.785,1.589-0.785h1.257c23.921,0,43.383,19.461,43.383,43.383V252C205.391,253.104,204.495,254,203.391,254z     M54.609,250h146.781v-35.286c0-21.716-17.667-39.383-39.383-39.383h-0.282c-8.348,10.429-20.674,16.389-33.975,16.389    c-13.299,0-25.624-5.96-33.973-16.389c-21.617,0.116-39.169,17.738-39.169,39.382V250z"/>
	</g>
	<g>
		<path class="st3" d="M68.928,194.309c-0.475,0-0.951-0.168-1.333-0.51c-0.823-0.736-0.893-2.001-0.156-2.824    c2.518-2.813,5.442-5.198,8.695-7.089c0.956-0.558,2.178-0.231,2.734,0.724c0.555,0.955,0.23,2.179-0.725,2.734    c-2.889,1.68-5.487,3.798-7.725,6.298C70.024,194.084,69.478,194.309,68.928,194.309z"/>
	</g>
	<g>
		<polygon class="st4" points="128,70.671 101.874,84.406 106.864,55.315 85.728,34.713 114.937,30.468 128,4 141.063,30.468     170.272,34.713 149.136,55.315 154.125,84.406   "/>
	</g>
	<g>
		<path class="st3" d="M101.874,86.406c-0.414,0-0.827-0.129-1.176-0.382c-0.615-0.448-0.924-1.206-0.796-1.957l4.813-28.055    L84.331,36.145c-0.545-0.531-0.741-1.326-0.506-2.05s0.861-1.251,1.615-1.361l28.169-4.093l12.597-25.525    C126.543,2.432,127.238,2,128,2s1.457,0.432,1.794,1.115l12.597,25.525l28.169,4.093c0.754,0.109,1.38,0.637,1.615,1.361    s0.039,1.519-0.506,2.05l-20.384,19.869l4.812,28.055c0.128,0.75-0.181,1.508-0.796,1.956c-0.616,0.448-1.433,0.507-2.106,0.152    L128,72.931l-25.195,13.246C102.512,86.331,102.192,86.406,101.874,86.406z M128,68.671c0.319,0,0.64,0.077,0.931,0.23    l22.538,11.849l-4.305-25.097c-0.11-0.648,0.104-1.311,0.575-1.77l18.235-17.774l-25.199-3.662    c-0.652-0.094-1.215-0.503-1.507-1.094L128,8.519l-11.269,22.834c-0.292,0.59-0.854,1-1.507,1.094l-25.199,3.662l18.235,17.774    c0.471,0.459,0.686,1.122,0.575,1.771L104.53,80.75l22.539-11.849C127.36,68.748,127.681,68.671,128,68.671z"/>
	</g>
</g>
</svg>
